<svg width="195" height="160" viewBox="0 0 195 160" fill="none" xmlns="http://www.w3.org/2000/svg">
<path d="M65 33C65 26.4732 66.8768 20.093 70.393 14.6662C73.9092 9.23937 78.9069 5.00968 84.7541 2.51199C90.6014 0.0142983 97.0355 -0.639212 103.243 0.6341C109.45 1.90741 115.152 5.05036 119.627 9.66549C124.103 14.2806 127.15 20.1607 128.385 26.562C129.62 32.9634 128.986 39.5986 126.564 45.6286C124.142 51.6585 120.041 56.8124 114.778 60.4385C109.516 64.0646 103.329 66 97 66C88.5131 66 80.3738 62.5232 74.3726 56.3345C68.3714 50.1458 65 41.7522 65 33Z" fill="url(#paint0_linear)"/>
<path d="M0 126.5C0 119.874 1.90609 113.397 5.47724 107.888C9.04838 102.379 14.1242 98.0856 20.0628 95.5501C26.0014 93.0145 32.5361 92.3511 38.8404 93.6437C45.1448 94.9363 50.9358 98.1269 55.481 102.812C60.0262 107.497 63.1215 113.466 64.3755 119.964C65.6295 126.463 64.9859 133.199 62.5261 139.32C60.0662 145.441 55.9006 150.673 50.556 154.354C45.2114 158.035 38.9279 160 32.5 160C23.8805 160 15.614 156.471 9.51904 150.188C3.42411 143.906 0 135.385 0 126.5Z" fill="url(#paint1_linear)"/>
<path d="M129 126.5C129 119.874 130.935 113.397 134.562 107.888C138.188 102.379 143.341 98.0856 149.371 95.5501C155.401 93.0145 162.037 92.3511 168.438 93.6437C174.839 94.9363 180.719 98.1269 185.335 102.812C189.95 107.497 193.093 113.466 194.366 119.964C195.639 126.463 194.986 133.199 192.488 139.32C189.99 145.441 185.761 150.673 180.334 154.354C174.907 158.035 168.527 160 162 160C153.248 160 144.854 156.471 138.665 150.188C132.477 143.906 129 135.385 129 126.5Z" fill="url(#paint2_linear)"/>
<defs>
<linearGradient id="paint0_linear" x1="46.3212" y1="-12.2778" x2="124.339" y2="73.3302" gradientUnits="userSpaceOnUse">
<stop stop-color="#57E0F4"/>
<stop offset="0.464373" stop-color="#7F9DF4"/>
<stop offset="1" stop-color="#AE00BE"/>
<stop offset="1" stop-color="#9849D7"/>
</linearGradient>
<linearGradient id="paint1_linear" x1="-18.9706" y1="80.5362" x2="60.2258" y2="167.478" gradientUnits="userSpaceOnUse">
<stop stop-color="#57E0F4"/>
<stop offset="0.464373" stop-color="#7F9DF4"/>
<stop offset="1" stop-color="#AE00BE"/>
<stop offset="1" stop-color="#9849D7"/>
</linearGradient>
<linearGradient id="paint2_linear" x1="109.738" y1="80.5362" x2="188.812" y2="168.68" gradientUnits="userSpaceOnUse">
<stop stop-color="#57E0F4"/>
<stop offset="0.464373" stop-color="#7F9DF4"/>
<stop offset="1" stop-color="#AE00BE"/>
<stop offset="1" stop-color="#9849D7"/>
</linearGradient>
</defs>
</svg>
