<svg width="152" height="152" viewBox="0 0 152 152" fill="none" xmlns="http://www.w3.org/2000/svg">
<path d="M83.2453 51.7497C83.0237 51.3317 85.4113 51.1037 85.8357 51.1037C86.3043 51.1607 84.5943 53.9663 83.2453 51.7497ZM69.616 32.2937L70.3 32.0973C70.7053 32.4457 69.844 32.699 69.977 32.9587C70.5217 33.9403 70.11 34.5293 70.0277 35.0613C69.939 35.5997 69.369 35.3653 69.084 35.6503C68.7483 36.0683 70.718 36.1253 70.7433 36.1887C70.813 36.3977 68.3683 36.7523 68.818 37.2717C69.426 38.133 74.0367 36.0367 73.302 36.157C74.727 35.4413 73.4857 35.3653 72.6877 34.9537C72.4153 33.592 72.1873 31.4893 71.3387 30.647L71.896 30.001C70.5913 28.1073 69.616 32.2937 69.616 32.2937ZM152 76C152 117.971 117.971 152 76 152C34.0227 152 0 117.971 0 76C0 34.029 34.0227 0 76 0C117.971 0 152 34.029 152 76ZM99.37 41.9837C99.332 41.059 98.1667 40.185 96.9507 41.7873C96.0957 42.8893 96.2477 44.5677 95.7853 45.315C95.1267 46.4233 99.3763 47.462 99.3763 46.417C99.5347 44.6627 104.012 46.018 104.886 46.2587C106.457 46.6957 108.959 44.8273 106.223 43.8457C103.974 43.0223 102.79 42.142 102.587 40.5333C102.587 40.5333 103.778 39.4187 103.259 39.482C101.878 39.653 99.37 44.46 99.37 41.9837ZM139.245 76C139.245 69.445 138.124 62.8267 136.984 59.3307C136.616 58.2287 135.787 57.3547 134.71 56.9367C133.089 56.3033 126.242 60.7177 125.21 58.5453C124.532 57.095 123.158 59.47 121.587 58.596C120.827 58.178 118.712 55.3343 117.756 55.6827C115.799 56.3857 120.758 61.788 122.113 62.4973C123.386 61.5347 127.509 59.5523 128.396 62.2567C130.093 67.3487 123.728 72.9283 120.473 75.867C115.609 80.2623 116.521 73.0233 113.208 70.471C111.467 69.1347 111.486 66.291 109.725 65.3093C108.94 64.866 105.336 60.7177 105.368 60.1603L105.26 61.2117C104.665 61.6613 103.398 59.5143 103.265 59.1787C103.265 61.047 106.305 64.0237 107.312 65.5183C109.028 68.0833 109.947 71.82 112.049 73.9163C113.177 75.0437 117.483 79.705 118.604 79.6037C119.827 79.496 123.69 76.703 124.374 76.8613C128.453 77.824 114.773 97.1597 113.474 99.5537C112.404 101.561 114.348 106.527 114.19 108.902C114.006 111.644 111.847 112.531 109.801 114.025C107.61 115.628 108.123 118.744 106.28 119.884C103.005 121.898 100.649 128.453 96.0007 128.421C94.6327 128.415 88.7807 130.701 88.0143 128.465C87.419 126.844 86.621 125.615 85.7787 124.013C84.9553 122.442 85.6837 120.815 84.683 119.428C83.9927 118.465 81.6747 116.28 81.4657 115.14C81.453 114.158 82.2067 111.175 83.239 110.656C84.6893 109.915 83.5177 107.755 83.3403 106.501C83.0363 104.259 81.6493 102.41 79.9837 101.112C77.52 99.218 78.793 97.7107 79.3693 95.0063C79.3693 93.7143 78.584 92.017 76.8487 92.5237C73.2767 93.5623 74.3597 89.737 71.7567 89.908C69.882 90.041 68.3493 91.2317 66.6077 91.7573C64.4163 92.416 62.1743 91.238 60.0083 90.9657C51.0973 89.8383 48.1903 79.6543 50.5147 72.3077C50.749 71.1043 49.7927 68.875 50.2107 67.944C51.2113 65.7147 53.2507 63.213 55.0367 61.522C56.0373 60.572 57.323 60.8127 58.501 60.0717C60.3187 58.9253 60.344 56.5693 62.1237 55.1253C64.657 53.067 68.115 53.1113 71.421 52.668C73.1817 52.4337 79.8823 50.9833 80.94 52.288C80.94 52.5287 82.1497 56.1133 80.8197 55.9107C83.562 56.0563 87.4697 60.6543 90.0727 59.5777C91.409 59.0203 90.9213 54.9163 93.6637 56.8987C95.323 58.0893 102.758 58.6213 104.304 57.3357C105.254 56.5503 105.786 51.4457 104.633 50.8693C105.368 51.5977 100.763 51.6547 100.333 51.49C99.5727 51.2113 98.8633 52.212 97.641 51.6483C98.3757 51.9967 93.5497 49.4063 96.2603 47.424C95.1267 48.2537 94.069 47.1897 92.8467 48.1017C92.0043 48.7857 93.2393 49.2417 92.036 49.837C90.1233 50.806 88.6793 46.512 87.9573 46.0243C87.2227 45.543 81.5353 41.553 83.0807 44.156L88.0777 49.1277C87.8307 49.286 86.7667 47.3163 86.7667 48.754C87.1023 47.899 86.8933 52.421 86.108 50.9517C85.7597 50.388 86.678 50.0713 86.146 49.2543C86.146 48.716 84.702 48.1903 84.4233 47.823C83.6317 46.8413 81.529 44.6753 80.389 44.156C80.0723 44.0103 75.5503 44.707 75.1703 44.8527C74.727 45.4733 74.347 46.1257 74.0367 46.8223C73.0993 47.1707 72.219 47.6203 71.383 48.1777L70.3887 50.4133C69.958 50.7997 65.5437 52.2563 65.5183 52.3133C65.702 51.8383 62.434 51.2303 62.6493 50.2803C62.89 49.2353 63.9983 45.9737 63.7133 44.783C63.4093 43.5353 70.5153 46.5817 70.9713 43.2947C71.155 41.8697 71.2627 40.2103 68.989 39.9697C69.4197 40.0203 73.3907 38.4117 74.0493 37.6897C74.974 36.6257 77.0957 34.8903 78.6347 34.8903C80.4333 34.8903 80.047 32.2747 80.8767 30.9953C81.7063 31.331 80.4333 33.3767 81.4277 34.2063C81.3643 33.554 84.246 34.5673 84.5247 34.4153C85.1833 34.0733 88.8567 34.276 88.2867 32.5533C87.6533 30.799 88.6097 31.3183 89.433 30.951C89.2937 31.008 91.5863 27.0307 91.979 28.3353C91.7067 26.9927 89.3127 28.804 88.4767 28.7343C86.545 28.5823 87.362 25.441 88.0903 24.5227C88.654 23.7943 86.5513 22.9013 86.526 24.2947C86.488 26.3783 84.55 28.2657 84.9997 31.0333C85.6837 35.207 80.3447 30.0263 79.876 30.3113C78.1027 31.388 76.6523 28.956 77.5707 27.4993C78.508 26.011 80.769 26.0807 81.7 24.4847C82.3587 23.3573 83.125 22.0463 84.1383 21.1913C87.5267 18.3477 88.464 20.6213 91.8397 20.9317C95.1393 21.2357 92.9543 21.717 92.4983 22.9837C92.0613 24.187 94.3097 24.6177 95.0887 23.6107C95.532 23.028 96.539 21.565 96.976 20.482C97.5397 19.076 102.682 19.2343 99.0913 17.0873C96.7227 15.675 86.3993 12.8313 79.4833 12.8313C77.9887 12.8313 76.9437 14.497 75.8037 15.4407C73.549 17.309 67.773 20.976 64.562 19.8613C61.275 18.7277 54.2387 24.0413 53.1113 24.0793C52.6997 24.1047 53.1367 20.064 55.3787 19.7663C54.4097 19.912 63.2763 15.2887 63.0357 14.326C62.7443 13.186 45.3087 19.532 46.0877 20.805C46.4613 21.3877 47.9813 21.3877 45.9863 22.667C44.8463 23.3573 43.6303 27.74 42.56 27.74C39.3617 29.1397 39.159 24.985 35.5997 30.3303L29.9377 32.6103C21.527 41.5467 15.7067 52.8643 13.5977 65.436C13.5153 65.9363 15.713 66.8673 15.998 67.2093C16.7073 68.058 16.7073 71.7187 17.0557 72.9157C17.9297 75.943 20.0893 77.6277 21.7423 80.3827C22.7177 82.023 24.339 86.1713 23.826 87.894C24.51 86.7667 30.6027 93.0557 31.7173 94.3667C34.3393 97.451 36.3597 101.188 32.1037 104.24C30.7293 105.228 34.1937 111.391 32.4077 112.904L30.1213 113.493C27.8667 114.88 28.8863 118.281 30.2543 119.713C41.7683 131.752 57.9943 139.264 75.981 139.264C110.922 139.264 139.245 110.941 139.245 76ZM66.367 35.739C67.1587 35.3907 68.2227 35.4033 68.3367 34.3457C68.4317 33.4083 68.6153 34.0543 68.8433 33.7123C69.065 33.3767 68.419 32.8383 68.1467 32.7877C67.7413 32.699 67.4627 33.2247 67.203 33.4463L66.747 33.5667L66.3163 34.1177L66.367 34.4217L65.816 35.093C65.2777 35.625 65.8287 35.9733 66.367 35.739Z" fill="url(#paint0_linear)"/>
<defs>
<linearGradient id="paint0_linear" x1="-71.4129" y1="-48.3522" x2="129.662" y2="174.715" gradientUnits="userSpaceOnUse">
<stop stop-color="#57E0F4"/>
<stop offset="0.560132" stop-color="#7F9DF4"/>
<stop offset="1" stop-color="#AE00BE"/>
</linearGradient>
</defs>
</svg>
