<svg width="180" height="180" viewBox="0 0 180 180" fill="none" xmlns="http://www.w3.org/2000/svg">
<path d="M67.9977 137.083H112.001H67.9977ZM89.9991 5.25V14.6667V5.25ZM149.927 30.0727L143.268 36.7313L149.927 30.0727ZM174.75 89.9991H165.333H174.75ZM14.6667 89.9991H5.25H14.6667ZM36.7308 36.7313L30.0722 30.0727L36.7308 36.7313ZM56.7065 123.294C38.3194 104.906 38.3194 75.0944 56.7065 56.7073C75.0934 38.3201 104.906 38.3201 123.293 56.7073C141.68 75.0944 141.68 104.906 123.293 123.294L118.141 128.445C112.181 134.404 108.832 142.488 108.832 150.916V155.917C108.832 166.318 100.401 174.75 89.9991 174.75C79.5984 174.75 71.1662 166.318 71.1662 155.917V150.916C71.1662 142.488 67.8181 134.404 61.8584 128.445L56.7065 123.294Z" stroke="url(#paint0_linear)" stroke-width="10" stroke-linecap="round" stroke-linejoin="round"/>
<defs>
<linearGradient id="paint0_linear" x1="-74.3848" y1="-48.669" x2="149.84" y2="200.08" gradientUnits="userSpaceOnUse">
<stop stop-color="#57E0F4"/>
<stop offset="0.560132" stop-color="#7F9DF4"/>
<stop offset="1" stop-color="#AE00BE"/>
</linearGradient>
</defs>
</svg>
