<svg width="390" height="139" viewBox="0 0 390 139" fill="none" xmlns="http://www.w3.org/2000/svg">
<path d="M383.701 125.65C372.375 125.65 365.239 107.186 358.314 89.3258C349.779 67.3275 340.952 44.576 320.799 44.576C300.646 44.576 291.836 67.3275 283.277 89.3258C276.351 107.203 269.184 125.65 257.857 125.65C247.194 125.65 238.837 92.2556 232.729 67.8654C223.991 32.9809 215.739 0 194.964 0C174.188 0 165.928 32.9478 157.19 67.8654C151.082 92.2556 142.725 125.65 132.062 125.65C120.736 125.65 113.6 107.186 106.675 89.3258C98.1395 67.3275 89.3212 44.576 69.1683 44.576C49.0155 44.576 40.2295 67.3275 31.6862 89.3258C24.761 107.203 17.5768 125.65 6.29904 125.65C4.60832 125.711 3.00673 126.441 1.83171 127.686C0.656691 128.931 0 130.595 0 132.325C0 134.056 0.656691 135.719 1.83171 136.964C3.00673 138.209 4.60832 138.939 6.29904 139C26.4518 139 35.2783 116.249 43.8135 94.2502C50.7388 76.39 57.8986 57.9256 69.2007 57.9256C80.5028 57.9256 87.6546 76.39 94.5798 94.2502C103.115 116.249 111.941 139 132.094 139C152.878 139 161.13 106.052 169.86 71.1759C175.968 46.7858 184.333 13.3827 194.996 13.3827C205.659 13.3827 214.016 46.7858 220.124 71.1759C228.854 106.052 237.114 139 257.89 139C278.042 139 286.869 116.249 295.404 94.2502C302.337 76.39 309.497 57.9256 320.799 57.9256C332.101 57.9256 339.261 76.39 346.186 94.2502C354.722 116.249 363.548 139 383.701 139C385.392 138.939 386.993 138.209 388.168 136.964C389.343 135.719 390 134.056 390 132.325C390 130.595 389.343 128.931 388.168 127.686C386.993 126.441 385.392 125.711 383.701 125.65Z" fill="url(#paint0_linear)"/>
<defs>
<linearGradient id="paint0_linear" x1="-65.51" y1="158.515" x2="549.083" y2="10.9192" gradientUnits="userSpaceOnUse">
<stop stop-color="#57E0F4"/>
<stop offset="0.07" stop-color="#5DD7F4"/>
<stop offset="0.18" stop-color="#6CBDF4"/>
<stop offset="0.3" stop-color="#7F9DF4"/>
<stop offset="0.34" stop-color="#8294F1"/>
<stop offset="0.42" stop-color="#897AE8"/>
<stop offset="0.52" stop-color="#9651DA"/>
<stop offset="0.63" stop-color="#A718C6"/>
<stop offset="0.67" stop-color="#AE00BE"/>
</linearGradient>
</defs>
</svg>
